HIERARCHY
ROOT Hips
{
  OFFSET 6.12541 106.058 -7.54883
  CHANNELS 6 Xposition Yposition Zposition Zrotation Xrotation Yrotation
  JOINT ToSpine
  {
    OFFSET -2.69724 7.43032 -0.144315
    CHANNELS 3 Zrotation Xrotation Yrotation
    JOINT Spine
    {
      OFFSET -0.0310711 10.7595 1.96963
      CHANNELS 3 Zrotation Xrotation Yrotation
      JOINT Spine1
      {
        OFFSET 19.9056 3.91189 0.764692
        CHANNELS 3 Zrotation Xrotation Yrotation
        JOINT Neck
        {
          OFFSET 25.9749 7.03908 -0.130764
          CHANNELS 3 Zrotation Xrotation Yrotation
          JOINT Head
          {
            OFFSET 9.52751 0.295786 -0.907742
            CHANNELS 3 Zrotation Xrotation Yrotation
            End Site
            {
              OFFSET 16.4037 0.713936 2.7358
            }
          }
        }
        JOINT LeftShoulder
        {
          OFFSET 17.7449 4.33886 11.7777
          CHANNELS 3 Zrotation Xrotation Yrotation
          JOINT LeftArm
          {
            OFFSET 0.911315 1.27913 9.80584
            CHANNELS 3 Zrotation Xrotation Yrotation
            JOINT LeftForeArm
            {
              OFFSET 28.6126 1.18197 -3.53199
              CHANNELS 3 Zrotation Xrotation Yrotation
              JOINT LeftHand
              {
                OFFSET 27.5088 0.0218783 0.327423
                CHANNELS 3 Zrotation Xrotation Yrotation
                End Site
                {
                  OFFSET 18.6038 -0.000155887 0.382096
                }
              }
            }
          }
        }
        JOINT RightShoulder
        {
          OFFSET 17.1009 2.89543 -12.2328
          CHANNELS 3 Zrotation Xrotation Yrotation
          JOINT RightArm
          {
            OFFSET 1.4228 0.178766 -10.211
            CHANNELS 3 Zrotation Xrotation Yrotation
            JOINT RightForeArm
            {
              OFFSET 28.733 1.87905 2.64907
              CHANNELS 3 Zrotation Xrotation Yrotation
              JOINT RightHand
              {
                OFFSET 27.4588 0.290562 -0.101845
                CHANNELS 3 Zrotation Xrotation Yrotation
                End Site
                {
                  OFFSET 17.8396 -0.255518 -0.000602873
                }
              }
            }
          }
        }
      }
    }
  }
  JOINT LeftUpLeg
  {
    OFFSET -5.61296 -2.22332 -10.2353
    CHANNELS 3 Zrotation Xrotation Yrotation
    JOINT LeftLeg
    {
      OFFSET 2.56703 -44.7417 -7.93097
      CHANNELS 3 Zrotation Xrotation Yrotation
      JOINT LeftFoot
      {
        OFFSET 3.16933 -46.5642 -3.96578
        CHANNELS 3 Zrotation Xrotation Yrotation
        JOINT LeftToeBase
        {
          OFFSET 0.346054 -6.02161 12.8035
          CHANNELS 3 Zrotation Xrotation Yrotation
          End Site
          {
            OFFSET 0.134235 -1.35082 5.13018
          }
        }
      }
    }
  }
  JOINT RightUpLeg
  {
    OFFSET -5.7928 -1.72406 10.6446
    CHANNELS 3 Zrotation Xrotation Yrotation
    JOINT RightLeg
    {
      OFFSET -2.57161 -44.7178 -7.85259
      CHANNELS 3 Zrotation Xrotation Yrotation
      JOINT RightFoot
      {
        OFFSET -3.10148 -46.5936 -4.03391
        CHANNELS 3 Zrotation Xrotation Yrotation
        JOINT RightToeBase
        {
          OFFSET -0.0828122 -6.13587 12.8035
          CHANNELS 3 Zrotation Xrotation Yrotation
          End Site
          {
            OFFSET -0.131328 -1.35082 5.13018
          }
        }
      }
    }
  }
}
MOTION
Frames:	10
Frame Time:	0.0333333
-1.17505 106.471 -9.61641 12.2728 -74.0366 -76.3787 -70.1915 0 88.8779 67.3188 70.9294 14.1841 6.38633 19.7413 5.9014 -151.329 22.0912 178.324 -164.157 61.4451 -173.73 2.36377 -4.21062 -35.7113 -101.5 46.129 -95.2995 -17.3303 49.0498 11.3966 9.27212 -0.530123 -4.69534 0.256704 -0.805482 49.1163 -85.0254 -32.2954 90.0525 -9.49634 -10.9064 4.27177 21.1019 -0.735456 -4.433 -58.24 -0.0663296 96.3864 2.88248 19.3995 -7.49019 4.3703 -3.78424 -0.768722 -0.507265 -1.06081 0.81469 -62.9571 3.69696 81.9126 -0.988639 15.9533 -3.92784 -6.48204 -2.76413 0.99801 -0.326778 -2.98349 -1.98719 
-1.20241 106.475 -9.5849 11.9908 -73.9941 -76.6591 -70.1915 0 88.8779 67.0092 70.9366 14.5133 6.50409 19.791 5.88224 -151.565 22.1018 178.094 -163.995 61.4606 -174.063 2.36525 -4.20513 -35.7139 -101.43 46.2619 -95.2687 -17.1222 48.0225 11.1758 9.38511 -0.512597 -4.41681 0.278165 -0.867451 49.1368 -84.45 -32.1933 90.4821 -9.57342 -10.3336 4.39393 21.1112 -0.773915 -4.64396 -58.2478 -0.0163526 96.4052 2.83269 19.2871 -7.34192 4.52615 -3.77203 -0.781968 -0.545144 -1.22033 0.517341 -62.911 3.77048 81.9622 -1.0396 15.9316 -3.91376 -6.31475 -2.61234 0.979193 -0.406192 -3.30757 -1.84862 
-1.23656 106.486 -9.56812 11.9123 -73.9781 -76.8111 -70.1915 0 88.8779 67.0863 70.9034 14.4727 6.46765 19.7831 5.73464 -151.591 21.9979 178.037 -164.01 61.356 -174.2 2.37539 -4.11336 -35.5086 -101.636 46.5891 -94.9729 -16.8783 47.1408 10.9981 9.68811 -0.520848 -4.32272 0.27032 -0.844776 49.1342 -84.7707 -32.1519 90.3138 -9.46613 -10.6439 4.43261 20.5171 -0.751698 -4.64808 -58.1543 -0.0897513 96.3821 2.84704 19.4425 -7.16588 4.54329 -3.77048 -0.783427 -0.486352 -1.07945 0.482922 -62.9316 3.6958 81.9447 -1.01442 15.869 -3.82682 -6.3909 -2.64146 0.987132 -0.406462 -3.47656 -2.1569 
-1.26298 106.473 -9.55482 11.8052 -73.8978 -76.8935 -70.1915 0 88.8779 67.0863 70.8984 14.6127 6.40896 19.8052 5.70717 -151.462 22.1031 178.092 -163.934 61.4587 -173.984 2.37726 -4.13453 -35.6324 -101.671 46.5485 -94.9592 -16.8832 47.1583 11.0006 9.66847 -0.540441 -4.55862 0.28483 -0.887304 49.0139 -84.9213 -32.1899 90.3146 -9.44065 -10.6713 4.42981 20.1745 -0.754698 -4.74168 -58.079 -0.102373 96.3093 2.90416 19.4423 -7.24292 4.61572 -3.74909 -0.789094 -0.614181 -1.3181 0.884474 -62.7946 3.70456 81.9383 -0.983961 15.9898 -3.81709 -6.51791 -2.76641 1.00159 -0.377151 -3.17092 -1.86915 
-1.2978 106.469 -9.52739 11.2777 -73.9452 -77.423 -70.1915 0 88.8779 67.1044 71.0027 14.763 6.38433 19.9349 5.66574 -151.284 22.1432 178.021 -163.7 61.4861 -174.051 2.35328 -4.26723 -35.7622 -101.421 46.4761 -95.0617 -16.8729 46.5549 10.8757 9.72287 -0.524182 -4.33971 0.297482 -0.924131 48.9996 -84.8605 -32.1209 90.4334 -9.47301 -10.5624 4.40378 20.3753 -0.80868 -5.00576 -58.1514 0.0366115 96.4135 2.81703 19.4 -7.11534 4.57444 -3.72556 -0.784684 -0.658896 -1.51759 0.466318 -62.7722 3.78636 81.985 -1.04126 16.0629 -3.75283 -6.35265 -2.73172 0.984852 -0.391348 -3.25271 -1.88655 
-1.32454 106.473 -9.50953 11.314 -73.8641 -77.4234 -70.1915 0 88.8779 66.7497 70.9413 15.1874 6.3877 19.9076 5.70976 -151.289 22.0993 178.315 -163.97 61.4387 -173.95 2.33515 -4.37789 -35.9124 -102.04 46.5705 -94.4514 -16.7241 46.9052 10.9487 9.79778 -0.545761 -4.53766 0.276759 -0.864173 48.9156 -84.173 -32.0743 90.7058 -9.47625 -9.95689 4.72104 20.5188 -0.86164 -5.27403 -58.0532 -0.0353459 96.3522 2.85362 19.4391 -7.14531 4.48568 -3.67066 -0.775049 -0.66409 -1.47335 0.745031 -62.704 3.69556 81.9088 -0.953263 16.0668 -3.72221 -6.40989 -2.79123 0.991393 -0.388423 -3.32281 -2.04101 
-1.38984 106.466 -9.48328 11.6346 -73.8216 -77.1011 -70.1915 0 88.8779 66.6748 70.9054 15.2088 6.34828 19.8702 5.76934 -150.977 22.1928 178.146 -163.675 61.5189 -174.015 2.31384 -4.44115 -35.7869 -102.126 46.6903 -94.192 -16.7603 47.013 10.9713 9.97779 -0.551497 -4.49259 0.270384 -0.844782 49.2208 -83.8499 -31.79 90.7341 -9.39218 -9.53153 5.04208 20.5829 -0.877654 -5.34744 -58.0837 0.0146773 96.3611 2.83921 19.3461 -7.3074 4.45008 -3.71464 -0.773349 -0.640919 -1.43613 0.641875 -62.6322 3.74558 81.9448 -0.998877 16.2056 -3.80913 -6.43197 -2.85374 0.994521 -0.343096 -3.15504 -2.14651 
-1.46496 106.468 -9.44518 11.5321 -73.8167 -77.2021 -70.1915 0 88.8779 66.1487 70.8447 15.8649 6.70074 19.9094 5.57854 -151.277 22.073 177.824 -163.329 61.3858 -174.813 2.31851 -4.36244 -35.5246 -101.769 46.9046 -94.4487 -16.8952 47.1207 10.9934 10.2365 -0.548665 -4.30771 0.279271 -0.8692 49.4717 -83.6082 -31.4887 91.1806 -9.56723 -8.87399 4.91918 21.2068 -0.933893 -5.50389 -58.0863 0.167709 96.5253 2.72245 19.4111 -7.58396 4.34789 -3.72329 -0.764657 -0.649114 -1.3624 1.09345 -62.6385 3.8024 81.9696 -0.989176 16.1917 -3.86035 -6.38089 -2.84759 0.989461 -0.37696 -3.23996 -1.99426 
-1.55953 106.454 -9.42826 11.5859 -73.8074 -77.084 -70.1915 0 88.8779 66.1503 70.7975 15.9945 6.75845 19.8713 5.56061 -151.102 22.0699 177.65 -162.846 61.3586 -175.054 2.3139 -4.35121 -35.3882 -102.009 47.0082 -94.2812 -16.8748 47.4671 11.0667 10.2648 -0.560943 -4.42339 0.266951 -0.833798 49.5694 -83.6348 -31.3681 91.2071 -9.5387 -8.75791 4.954 21.3386 -0.963935 -5.63334 -58.0911 0.274195 96.5354 2.78635 19.4008 -7.71104 4.29104 -3.94287 -0.76731 -0.505439 -1.00458 1.0484 -62.6203 3.93556 82.0233 -0.986799 16.2229 -3.9392 -6.4663 -2.82598 0.997419 -0.388802 -3.32721 -2.04447 
-1.67805 106.459 -9.41311 11.6993 -73.7895 -77.0003 -70.1915 0 88.8779 66.2898 70.8511 15.7794 6.5723 19.8051 5.99437 -150.988 22.2393 178.301 -163.353 61.5393 -174.166 2.35161 -4.32527 -35.9893 -101.885 46.5024 -94.3629 -17.053 47.9798 11.1763 10.3072 -0.566555 -4.46954 0.259118 -0.812017 49.2823 -83.6951 -31.5046 91.0298 -9.42753 -8.62609 5.16189 21.7123 -0.991024 -5.68389 -58.1443 0.25362 96.4662 2.85593 19.2498 -7.60534 4.24886 -3.95965 -0.764267 -0.427892 -0.873617 0.749146 -62.5446 3.93586 81.9711 -0.942045 16.3542 -3.9432 -6.36619 -2.77563 0.986877 -0.420933 -3.55835 -2.17636 
